# xmcd
#
# Track frame offsets: 
#        150
#        12089
#        22426
#        36147
#        44507
#        54654
#        66500
#        78494
#        88252
#        99786
#        105450
#        114621
#        121630
#        132861
#        142158
#        156857
#        169590
#        181342
#
# Disc length: 2544 seconds
#
# Revision: 0
# Processed by: cddbd v1.5.2PL0 Copyright (c) Steve Scherf et al.
# Submitted via: ExactAudioCopy v1.1
#
DISCID=f509ee12
DTITLE=Willie Nelson - The Very Best Of
DYEAR=1900
DGENRE=Country
TTITLE0=Is There Something On Your Mind
TTITLE1=Pride Wins Again
TTITLE2=Everything But You
TTITLE3=You Wouldn't Cross The Street To Say Goodbye
TTITLE4=A New Way To Cry
TTITLE5=I'll Stay Around
TTITLE6=Happiness Lives Next Door
TTITLE7=Let's Pretend
TTITLE8=I'm Gonna Lose A Lot Of Teardrops
TTITLE9=The Ghost
TTITLE10=Waiting Time
TTITLE11=Both Ends Of The Candle
TTITLE12=Go Away
TTITLE13=Right From Wrong
TTITLE14=What Can You Do To Me Now
TTITLE15=The Storm Has Just Begun
TTITLE16=What A Way To Live
TTITLE17=Ashamed
EXTD=
EXTT0=
EXTT1=
EXTT2=
EXTT3=
EXTT4=
EXTT5=
EXTT6=
EXTT7=
EXTT8=
EXTT9=
EXTT10=
EXTT11=
EXTT12=
EXTT13=
EXTT14=
EXTT15=
EXTT16=
EXTT17=
PLAYORDER=
